name Walk5.mot
datacolumns 19
datarows 22
range 1.44100000 1.46200000
endheader

                time	   L_ground_force_vx	   L_ground_force_vy	   L_ground_force_vz	   L_ground_force_px	   L_ground_force_py	   L_ground_force_pz	   R_ground_force_vx	   R_ground_force_vy	   R_ground_force_vz	   R_ground_force_px	   R_ground_force_py	   R_ground_force_pz	   L_ground_torque_x	   L_ground_torque_y	   L_ground_torque_z	   R_ground_torque_x	   R_ground_torque_y	   R_ground_torque_z	
          1.44100000	          0.00000000	          0.00000000	          0.00000000	          0.00000000	          0.00000000	          0.00000000	         37.37812102	        477.48731362	         30.54782557	         -0.12939404	          0.00000000	         -0.07123970	          0.00000000	          0.00000000	          0.00000000	          0.00000000	          0.75561992	          0.00000000	
          1.44200000	          0.00000000	          0.00000000	          0.00000000	          0.00000000	          0.00000000	          0.00000000	         37.98954228	        480.04974787	         30.78328247	         -0.12937688	          0.00000000	         -0.07114311	          0.00000000	          0.00000000	          0.00000000	          0.00000000	          0.75952423	          0.00000000	
          1.44300000	          0.00000000	          0.00000000	          0.00000000	          0.00000000	          0.00000000	          0.00000000	         38.68665370	        482.55411005	         31.03419372	         -0.12932855	          0.00000000	         -0.07096930	          0.00000000	          0.00000000	          0.00000000	          0.00000000	          0.73775380	          0.00000000	
          1.44400000	          0.00000000	          0.00000000	          0.00000000	          0.00000000	          0.00000000	          0.00000000	         39.43842728	        485.01417605	         31.27041516	         -0.12926082	          0.00000000	         -0.07079825	          0.00000000	          0.00000000	          0.00000000	          0.00000000	          0.70395760	          0.00000000	
          1.44500000	          0.00000000	          0.00000000	          0.00000000	          0.00000000	          0.00000000	          0.00000000	         40.21301530	        487.47925029	         31.49537878	         -0.12918369	          0.00000000	         -0.07067763	          0.00000000	          0.00000000	          0.00000000	          0.00000000	          0.66732812	          0.00000000	
          1.44600000	          0.00000000	          0.00000000	          0.00000000	          0.00000000	          0.00000000	          0.00000000	         41.00619299	        490.00815625	         31.71444501	         -0.12907783	          0.00000000	         -0.07060463	          0.00000000	          0.00000000	          0.00000000	          0.00000000	          0.63573901	          0.00000000	
          1.44700000	          0.00000000	          0.00000000	          0.00000000	          0.00000000	          0.00000000	          0.00000000	         41.81528639	        492.62581845	         31.91179820	         -0.12892158	          0.00000000	         -0.07054424	          0.00000000	          0.00000000	          0.00000000	          0.00000000	          0.61955280	          0.00000000	
          1.44800000	          0.00000000	          0.00000000	          0.00000000	          0.00000000	          0.00000000	          0.00000000	         42.61739181	        495.30295012	         32.06837342	         -0.12872818	          0.00000000	         -0.07045569	          0.00000000	          0.00000000	          0.00000000	          0.00000000	          0.62570107	          0.00000000	
          1.44900000	          0.00000000	          0.00000000	          0.00000000	          0.00000000	          0.00000000	          0.00000000	         43.37966721	        497.97366891	         32.18345068	         -0.12853680	          0.00000000	         -0.07031920	          0.00000000	          0.00000000	          0.00000000	          0.00000000	          0.64948325	          0.00000000	
          1.45000000	          0.00000000	          0.00000000	          0.00000000	          0.00000000	          0.00000000	          0.00000000	         44.07989265	        500.57722308	         32.27894894	         -0.12837886	          0.00000000	         -0.07013807	          0.00000000	          0.00000000	          0.00000000	          0.00000000	          0.67670885	          0.00000000	
          1.45100000	          0.00000000	          0.00000000	          0.00000000	          0.00000000	          0.00000000	          0.00000000	         44.72405151	        503.08993854	         32.39065318	         -0.12825867	          0.00000000	         -0.06992500	          0.00000000	          0.00000000	          0.00000000	          0.00000000	          0.69137035	          0.00000000	
          1.45200000	          0.00000000	          0.00000000	          0.00000000	          0.00000000	          0.00000000	          0.00000000	         45.35242048	        505.52216843	         32.54059152	         -0.12815544	          0.00000000	         -0.06970806	          0.00000000	          0.00000000	          0.00000000	          0.00000000	          0.68138799	          0.00000000	
          1.45300000	          0.00000000	          0.00000000	          0.00000000	          0.00000000	          0.00000000	          0.00000000	         46.01534867	        507.90996259	         32.71314952	         -0.12804804	          0.00000000	         -0.06953902	          0.00000000	          0.00000000	          0.00000000	          0.00000000	          0.64621968	          0.00000000	
          1.45400000	          0.00000000	          0.00000000	          0.00000000	          0.00000000	          0.00000000	          0.00000000	         46.73189251	        510.31430899	         32.87395809	         -0.12793330	          0.00000000	         -0.06946283	          0.00000000	          0.00000000	          0.00000000	          0.00000000	          0.59945699	          0.00000000	
          1.45500000	          0.00000000	          0.00000000	          0.00000000	          0.00000000	          0.00000000	          0.00000000	         47.48637026	        512.78941045	         33.01021740	         -0.12780873	          0.00000000	         -0.06947167	          0.00000000	          0.00000000	          0.00000000	          0.00000000	          0.55651335	          0.00000000	
          1.45600000	          0.00000000	          0.00000000	          0.00000000	          0.00000000	          0.00000000	          0.00000000	         48.26884592	        515.33992574	         33.12992724	         -0.12765617	          0.00000000	         -0.06950814	          0.00000000	          0.00000000	          0.00000000	          0.00000000	          0.52294162	          0.00000000	
          1.45700000	          0.00000000	          0.00000000	          0.00000000	          0.00000000	          0.00000000	          0.00000000	         49.08257535	        517.92936137	         33.22369465	         -0.12746530	          0.00000000	         -0.06952039	          0.00000000	          0.00000000	          0.00000000	          0.00000000	          0.50110207	          0.00000000	
          1.45800000	          0.00000000	          0.00000000	          0.00000000	          0.00000000	          0.00000000	          0.00000000	         49.90681625	        520.51277960	         33.25969922	         -0.12726312	          0.00000000	         -0.06949904	          0.00000000	          0.00000000	          0.00000000	          0.00000000	          0.49984799	          0.00000000	
          1.45900000	          0.00000000	          0.00000000	          0.00000000	          0.00000000	          0.00000000	          0.00000000	         50.69976428	        523.04421482	         33.22692357	         -0.12709635	          0.00000000	         -0.06945306	          0.00000000	          0.00000000	          0.00000000	          0.00000000	          0.52710567	          0.00000000	
          1.46000000	          0.00000000	          0.00000000	          0.00000000	          0.00000000	          0.00000000	          0.00000000	         51.44048092	        525.49308473	         33.16251682	         -0.12698807	          0.00000000	         -0.06937132	          0.00000000	          0.00000000	          0.00000000	          0.00000000	          0.57739249	          0.00000000	
          1.46100000	          0.00000000	          0.00000000	          0.00000000	          0.00000000	          0.00000000	          0.00000000	         52.13913876	        527.87364106	         33.12828521	         -0.12692706	          0.00000000	         -0.06923604	          0.00000000	          0.00000000	          0.00000000	          0.00000000	          0.63312659	          0.00000000	
          1.46200000	          0.00000000	          0.00000000	          0.00000000	          0.00000000	          0.00000000	          0.00000000	         52.82608057	        530.23448330	         33.16816116	         -0.12688382	          0.00000000	         -0.06906433	          0.00000000	          0.00000000	          0.00000000	          0.00000000	          0.67504765	          0.00000000	
